<svg width="90" height="90" viewBox="0 0 90 90" fill="none" xmlns="http://www.w3.org/2000/svg">
<path fill-rule="evenodd" clip-rule="evenodd" d="M9.36777 8.00659C10.524 7.33563 11.9499 7.33087 13.1105 7.99409L24.375 14.4309L35.6395 7.99409C36.7924 7.3353 38.2076 7.3353 39.3605 7.99409L50.625 14.4309L61.8895 7.99409C63.0501 7.33087 64.476 7.33563 65.6322 8.00659C66.7884 8.67754 67.5 9.91324 67.5 11.25V45H78.75C80.8211 45 82.5 46.6789 82.5 48.75V71.25C82.5 77.4632 77.4632 82.5 71.25 82.5H63.75H18.75C12.5368 82.5 7.5 77.4632 7.5 71.25V11.25C7.5 9.91324 8.21159 8.67754 9.36777 8.00659ZM67.5 52.5V75H71.25C73.3211 75 75 73.3211 75 71.25V52.5H67.5ZM60 75V48.75V17.7119L52.4855 22.0059C51.3326 22.6647 49.9174 22.6647 48.7645 22.0059L37.5 15.5691L26.2355 22.0059C25.0826 22.6647 23.6674 22.6647 22.5145 22.0059L15 17.7119V71.25C15 73.3211 16.6789 75 18.75 75H60ZM22.5 39.375C22.5 37.3039 24.1789 35.625 26.25 35.625H48.75C50.8211 35.625 52.5 37.3039 52.5 39.375C52.5 41.4461 50.8211 43.125 48.75 43.125H26.25C24.1789 43.125 22.5 41.4461 22.5 39.375ZM26.25 50.625C24.1789 50.625 22.5 52.3039 22.5 54.375C22.5 56.4461 24.1789 58.125 26.25 58.125H48.75C50.8211 58.125 52.5 56.4461 52.5 54.375C52.5 52.3039 50.8211 50.625 48.75 50.625H26.25Z" fill="white"/>
</svg>
