<svg width="125" height="19" viewBox="0 0 125 19" fill="none" xmlns="http://www.w3.org/2000/svg">
<g clip-path="url(#clip0_84_926)">
<path d="M79.0265 7.37451H63.1375V11.6255H79.0265V7.37451Z" fill="#65BB47"/>
<path d="M35.2223 14.4163L36.5733 18.5749H41.5779L35.5267 0.425097H28.0674L22.0163 18.5749H27.0209L28.3719 14.4163H35.2223ZM29.78 10.2947L31.778 4.28794L33.7761 10.2947H29.761H29.78ZM92.6321 0C86.9615 0 82.3755 4.25097 82.3755 9.5C82.3755 14.749 86.9615 19 92.6321 19C98.3026 19 102.889 14.749 102.889 9.5C102.889 4.25097 98.3026 0 92.6321 0ZM92.6321 14.9154C89.5684 14.9154 87.0757 12.4942 87.0757 9.5C87.0757 6.50584 89.5684 4.08463 92.6321 4.08463C95.6957 4.08463 98.1694 6.50584 98.1694 9.5C98.1694 12.4942 95.6767 14.9154 92.6321 14.9154ZM44.8128 0.425097H49.5319V14.3239H59.8265V18.5749H44.8128V0.425097ZM63.1375 0.425097H79.0265V4.67607H63.1375V0.425097ZM63.1375 14.3239H79.0265V18.5749H63.1375V14.3239ZM110.938 18.5749H106.219V0.425097H110.938L120.281 11.7918V0.425097H125V18.5749H120.281L110.938 7.20817V18.5749ZM14.0623 0.425097H18.7814V18.5749H14.0623V11.6255H4.71914V18.5749H0V0.425097H4.71914V7.37451H14.0623V0.425097Z" fill="black"/>
</g>
<defs>
<clipPath id="clip0_84_926">
<rect width="125" height="19" fill="white"/>
</clipPath>
</defs>
</svg>
