<svg width="117" height="18" viewBox="0 0 117 18" fill="none" xmlns="http://www.w3.org/2000/svg">
<g clip-path="url(#clip0_84_1320)">
<path d="M73.9688 6.98633H59.0967V11.0136H73.9688V6.98633Z" fill="#21BE5C"/>
<path d="M32.968 13.6576L34.2326 17.5973H38.9169L33.253 0.402724H26.2711L20.6072 17.5973H25.2915L26.5561 13.6576H32.968ZM27.8741 9.75292L29.7443 4.06226L31.6144 9.75292H27.8563H27.8741ZM86.7036 0C81.396 0 77.1035 4.02724 77.1035 9C77.1035 13.9728 81.396 18 86.7036 18C92.0113 18 96.3037 13.9728 96.3037 9C96.3037 4.02724 92.0113 0 86.7036 0ZM86.7036 14.1304C83.836 14.1304 81.5028 11.8366 81.5028 9C81.5028 6.16342 83.836 3.86965 86.7036 3.86965C89.5712 3.86965 91.8866 6.16342 91.8866 9C91.8866 11.8366 89.5534 14.1304 86.7036 14.1304ZM41.9447 0.402724H46.3619V13.57H55.9976V17.5973H41.9447V0.402724ZM59.0967 0.402724H73.9688V4.42996H59.0967V0.402724ZM59.0967 13.57H73.9688V17.5973H59.0967V13.57ZM103.838 17.5973H99.4206V0.402724H103.838L112.583 11.1712V0.402724H117V17.5973H112.583L103.838 6.82879V17.5973ZM13.1623 0.402724H17.5794V17.5973H13.1623V11.0136H4.41711V17.5973H0V0.402724H4.41711V6.98638H13.1623V0.402724Z" fill="white"/>
</g>
<defs>
<clipPath id="clip0_84_1320">
<rect width="117" height="18" fill="white"/>
</clipPath>
</defs>
</svg>
