<svg width="76" height="76" viewBox="0 0 76 76" fill="none" xmlns="http://www.w3.org/2000/svg">
<path fill-rule="evenodd" clip-rule="evenodd" d="M2.36777 1.00659C3.52395 0.33563 4.94988 0.330868 6.11052 0.994088L17.375 7.43093L28.6395 0.994088C29.7924 0.335304 31.2076 0.335304 32.3605 0.994088L43.625 7.43093L54.8895 0.994088C56.0501 0.330868 57.476 0.33563 58.6322 1.00659C59.7884 1.67754 60.5 2.91324 60.5 4.25V38H71.75C73.8211 38 75.5 39.6789 75.5 41.75V64.25C75.5 70.4632 70.4632 75.5 64.25 75.5H56.75H11.75C5.5368 75.5 0.5 70.4632 0.5 64.25V4.25C0.5 2.91324 1.21159 1.67754 2.36777 1.00659ZM60.5 45.5V68H64.25C66.3211 68 68 66.3211 68 64.25V45.5H60.5ZM53 68V41.75V10.7119L45.4855 15.0059C44.3326 15.6647 42.9174 15.6647 41.7645 15.0059L30.5 8.56907L19.2355 15.0059C18.0826 15.6647 16.6674 15.6647 15.5145 15.0059L8 10.7119V64.25C8 66.3211 9.67893 68 11.75 68H53ZM15.5 32.375C15.5 30.3039 17.1789 28.625 19.25 28.625H41.75C43.8211 28.625 45.5 30.3039 45.5 32.375C45.5 34.4461 43.8211 36.125 41.75 36.125H19.25C17.1789 36.125 15.5 34.4461 15.5 32.375ZM19.25 43.625C17.1789 43.625 15.5 45.3039 15.5 47.375C15.5 49.4461 17.1789 51.125 19.25 51.125H41.75C43.8211 51.125 45.5 49.4461 45.5 47.375C45.5 45.3039 43.8211 43.625 41.75 43.625H19.25Z" fill="white"/>
</svg>
