<svg width="76" height="76" viewBox="0 0 76 76" fill="none" xmlns="http://www.w3.org/2000/svg">
<path fill-rule="evenodd" clip-rule="evenodd" d="M58.7418 9.7591C56.3855 7.38575 52.5287 7.39698 50.1864 9.78401L13.2952 47.3799C13.2232 47.4533 13.1702 47.543 13.1409 47.6413L9.86097 58.6536L20.6926 55.3806C20.8041 55.3469 20.9057 55.2868 20.9886 55.2054L58.6881 18.1833C61.0423 15.8715 61.0663 12.1004 58.7418 9.7591ZM44.796 4.55633C50.0814 -0.829994 58.7843 -0.855336 64.1013 4.50012C69.3465 9.78324 69.2923 18.2927 63.9802 23.5094L63.0587 24.4143L64.8598 26.6657C68.4408 31.142 68.0834 37.595 64.03 41.6485L57.5266 48.1518C56.0622 49.6163 53.6878 49.6163 52.2234 48.1518C50.7589 46.6873 50.7589 44.313 52.2234 42.8485L58.7267 36.3452C60.0778 34.994 60.1969 32.843 59.0033 31.3509L57.6798 29.6965L26.2806 60.5314C25.3288 61.4661 24.1626 62.1566 22.8825 62.5434L5.36026 67.8381C4.03495 68.2386 2.59548 67.8833 1.61249 66.9131C0.629506 65.9428 0.261762 64.5144 0.655042 63.1939L5.92042 45.5158C6.29715 44.2509 6.97827 43.0964 7.90482 42.1522L44.796 4.55633ZM37.451 68.9698L37.4591 68.964C38.9464 67.9073 40.2521 66.9795 41.5307 66.189C43.0853 65.2278 44.3359 64.6421 45.419 64.381C46.4194 64.1398 47.288 64.1706 48.2051 64.5167C49.1863 64.8871 50.4763 65.7169 52.0905 67.4996C54.0739 69.69 56.1696 71.2295 58.4798 71.9516C60.8709 72.6989 63.0872 72.4453 65.0201 71.7606C66.8489 71.1128 68.4871 70.0543 69.8264 69.1356C70.2451 68.8484 70.6339 68.5758 71.0049 68.3157C71.9376 67.6618 72.7576 67.0869 73.6576 66.5567C75.4405 65.5065 76.0315 63.2147 74.9776 61.4379C73.9238 59.6611 71.6242 59.0721 69.8413 60.1224C68.6632 60.8164 67.4819 61.6449 66.4772 62.3496C66.1563 62.5747 65.8532 62.7873 65.5742 62.9787C64.2894 63.8599 63.3412 64.4229 62.5083 64.7179C61.7794 64.9761 61.2586 64.9868 60.7242 64.8197C60.1089 64.6274 59.0907 64.0738 57.6586 62.4922C55.5228 60.1335 53.2889 58.4431 50.8614 57.5269C48.3697 56.5864 45.9446 56.5643 43.6555 57.1162C41.4491 57.6481 39.4143 58.7015 37.5767 59.8377C36.0733 60.7673 34.5249 61.8682 33.0292 62.9316C32.7103 63.1584 32.3938 63.3835 32.0806 63.6048C27.9927 66.4937 25.6416 67.4543 24.1045 67.8049C22.9573 68.0666 22.2437 68.0412 21.1044 68.0006C20.5964 67.9825 20.0036 67.9614 19.25 67.9614C17.1789 67.9614 15.5 69.6346 15.5 71.6986C15.5 73.7626 17.1789 75.4358 19.25 75.4358C19.5197 75.4358 19.8385 75.4479 20.1991 75.4616C21.5853 75.5144 23.5875 75.5905 25.7779 75.0909C28.66 74.4334 31.9337 72.8714 36.4188 69.7018C36.7732 69.4514 37.1167 69.2074 37.451 68.9698Z" fill="white"/>
</svg>
