<svg width="90" height="100" viewBox="0 0 90 100" fill="none" xmlns="http://www.w3.org/2000/svg">
<path fill-rule="evenodd" clip-rule="evenodd" d="M20 25C20 11.1929 31.1929 0 45 0C58.8071 0 70 11.1929 70 25C70 38.8071 58.8071 50 45 50C31.1929 50 20 38.8071 20 25ZM61.2497 57.9598C77.92 61.0855 90 75.6411 90 92.6018V95.0001C90 97.7616 87.7614 100 85 100H5C2.23858 100 0 97.7616 0 95.0001V92.6018C0 75.6411 12.08 61.0855 28.7503 57.9598C39.4898 55.9462 50.5102 55.9462 61.2497 57.9598Z" fill="#728699"/>
</svg>
