<svg width="90" height="90" viewBox="0 0 90 90" fill="none" xmlns="http://www.w3.org/2000/svg">
<path fill-rule="evenodd" clip-rule="evenodd" d="M11.099 11.25C9.11131 11.25 7.5 12.9289 7.5 15C7.5 17.0711 9.11131 18.75 11.099 18.75H16.0434L24.3841 65.5781C22.86 66.9533 21.8959 68.9844 21.8959 71.25C21.8959 75.3921 25.1185 78.75 29.0938 78.75C33.0691 78.75 36.2917 75.3921 36.2917 71.25H54.2866C54.2866 75.3921 57.5092 78.75 61.4845 78.75C65.4598 78.75 68.6824 75.3921 68.6824 71.25C68.6824 67.1079 65.4598 63.75 61.4845 63.75H31.3794L30.0435 56.25L66.9043 56.25C68.9306 56.2549 70.9095 55.5317 72.4822 54.1917C74.0562 52.8506 75.1312 50.9738 75.4993 48.882L75.5005 48.8749L78.6264 31.3721C79.4501 26.7594 76.0528 22.5 71.5499 22.5H24.0321L22.9628 16.4966L22.9612 16.4873C22.7017 15.0088 21.9479 13.6844 20.8483 12.7343C19.748 11.7836 18.3682 11.2639 16.9489 11.25H11.099ZM25.368 30L28.7076 48.75H66.9151L66.9258 48.75C67.3009 48.7512 67.6546 48.6167 67.9258 48.3857C68.1954 48.156 68.3633 47.8493 68.4196 47.5281L68.4218 47.5155L71.5499 30H25.368Z" fill="white"/>
</svg>
