<svg width="90" height="90" viewBox="0 0 90 90" fill="none" xmlns="http://www.w3.org/2000/svg">
<path fill-rule="evenodd" clip-rule="evenodd" d="M65.7418 16.7591C63.3855 14.3857 59.5287 14.397 57.1864 16.784L20.2952 54.3799C20.2232 54.4533 20.1702 54.543 20.1409 54.6413L16.861 65.6536L27.6926 62.3806C27.8041 62.3469 27.9057 62.2868 27.9886 62.2054L65.6881 25.1833C68.0423 22.8715 68.0663 19.1004 65.7418 16.7591ZM51.796 11.5563C57.0814 6.17001 65.7843 6.14466 71.1013 11.5001C76.3465 16.7832 76.2923 25.2927 70.9802 30.5094L70.0587 31.4143L71.8598 33.6657C75.4408 38.142 75.0834 44.595 71.03 48.6485L64.5266 55.1518C63.0622 56.6163 60.6878 56.6163 59.2234 55.1518C57.7589 53.6873 57.7589 51.313 59.2234 49.8485L65.7267 43.3452C67.0778 41.994 67.1969 39.843 66.0033 38.3509L64.6798 36.6965L33.2806 67.5314C32.3288 68.4661 31.1626 69.1566 29.8825 69.5434L12.3603 74.8381C11.0349 75.2386 9.59548 74.8833 8.61249 73.9131C7.62951 72.9428 7.26176 71.5144 7.65504 70.1939L12.9204 52.5158C13.2971 51.2509 13.9783 50.0964 14.9048 49.1522L51.796 11.5563ZM44.451 75.9698L44.4591 75.964C45.9464 74.9073 47.2521 73.9795 48.5307 73.189C50.0853 72.2278 51.3359 71.6421 52.419 71.381C53.4194 71.1398 54.288 71.1706 55.2051 71.5167C56.1863 71.8871 57.4763 72.7169 59.0905 74.4996C61.0739 76.69 63.1696 78.2295 65.4798 78.9516C67.8709 79.6989 70.0872 79.4453 72.0201 78.7606C73.8489 78.1128 75.4871 77.0543 76.8264 76.1356C77.2451 75.8484 77.6339 75.5758 78.0049 75.3157C78.9376 74.6618 79.7576 74.0869 80.6576 73.5567C82.4405 72.5065 83.0315 70.2147 81.9776 68.4379C80.9238 66.6611 78.6242 66.0721 76.8413 67.1224C75.6632 67.8164 74.4819 68.6449 73.4772 69.3496C73.1563 69.5747 72.8532 69.7873 72.5742 69.9787C71.2894 70.8599 70.3412 71.4229 69.5083 71.7179C68.7794 71.9761 68.2586 71.9868 67.7242 71.8197C67.1089 71.6274 66.0907 71.0738 64.6586 69.4922C62.5228 67.1335 60.2889 65.4431 57.8614 64.5269C55.3697 63.5864 52.9446 63.5643 50.6555 64.1162C48.4491 64.6481 46.4143 65.7015 44.5767 66.8377C43.0733 67.7673 41.5249 68.8682 40.0292 69.9316C39.7103 70.1584 39.3938 70.3835 39.0806 70.6048C34.9927 73.4937 32.6416 74.4543 31.1045 74.8049C29.9573 75.0666 29.2437 75.0412 28.1044 75.0006C27.5964 74.9825 27.0036 74.9614 26.25 74.9614C24.1789 74.9614 22.5 76.6346 22.5 78.6986C22.5 80.7626 24.1789 82.4358 26.25 82.4358C26.5197 82.4358 26.8385 82.4479 27.1991 82.4616C28.5853 82.5144 30.5875 82.5905 32.7779 82.0909C35.66 81.4334 38.9337 79.8714 43.4188 76.7018C43.7732 76.4514 44.1167 76.2074 44.451 75.9698Z" fill="white"/>
</svg>
