<svg width="51" height="47" viewBox="0 0 51 47" fill="none" xmlns="http://www.w3.org/2000/svg">
<path fill-rule="evenodd" clip-rule="evenodd" d="M15.2386 15.2048C15.2386 9.45179 19.9023 4.78809 25.6553 4.78809C31.4082 4.78809 36.0719 9.45179 36.0719 15.2048C36.0719 20.9577 31.4082 25.6214 25.6553 25.6214C19.9023 25.6214 15.2386 20.9577 15.2386 15.2048ZM32.426 28.938C39.3719 30.2404 44.4053 36.3052 44.4053 43.3722V44.3715C44.4053 45.5221 43.4725 46.4548 42.3219 46.4548H8.98861C7.83801 46.4548 6.90527 45.5221 6.90527 44.3715V43.3722C6.90527 36.3052 11.9386 30.2404 18.8846 28.938C23.3594 28.099 27.9512 28.099 32.426 28.938Z" fill="#728699"/>
</svg>
