<svg width="40" height="40" viewBox="0 0 40 40" fill="none" xmlns="http://www.w3.org/2000/svg">
<circle cx="20" cy="20" r="20" fill="#25D366"/>
<path d="M20.0419 10C14.5529 10 10.0858 14.446 10.0839 19.91C10.0826 21.6573 10.5419 23.3627 11.4129 24.8647L10 30L15.2794 28.622C16.7479 29.4158 18.3808 29.8298 20.0381 29.8287H20.0419C25.531 29.8287 29.9981 25.382 30 19.918C30.0013 17.2713 28.9665 14.78 27.0858 12.9073C25.2058 11.034 22.7058 10.0007 20.0419 10ZM20.0419 28.1547H20.0387C18.5535 28.1547 17.0968 27.7573 15.8258 27.0067L15.5226 26.828L12.391 27.6453L13.2271 24.6053L13.0303 24.294C12.2038 22.9914 11.7638 21.4676 11.7645 19.91C11.7665 15.368 15.48 11.674 20.0452 11.674C22.2555 11.6747 24.3335 12.5327 25.8968 14.0893C27.46 15.646 28.32 17.716 28.3187 19.9173C28.3168 24.4593 24.6045 28.1547 20.0419 28.1547ZM24.5819 21.9847C24.3329 21.8613 23.1097 21.262 22.8813 21.1787C22.6535 21.0967 22.4877 21.054 22.3219 21.302C22.1568 21.55 21.6794 22.108 21.5348 22.2727C21.389 22.438 21.2439 22.458 20.9948 22.3347C20.7458 22.2107 19.9439 21.9493 18.9942 21.1053C18.2542 20.4493 17.7548 19.6387 17.6097 19.39C17.4645 19.1427 17.5942 19.0087 17.7187 18.8853C17.8303 18.7753 17.9677 18.5967 18.0916 18.452C18.2155 18.3073 18.2568 18.204 18.3406 18.0387C18.4232 17.874 18.3819 17.7287 18.3194 17.6053C18.2568 17.4807 17.76 16.262 17.5516 15.7667C17.3503 15.284 17.1452 15.3487 16.9923 15.3407C16.8471 15.334 16.6819 15.332 16.5148 15.332C16.3503 15.332 16.08 15.394 15.8516 15.642C15.6239 15.89 14.9806 16.4887 14.9806 17.7073C14.9806 18.9267 15.8723 20.104 15.9968 20.2693C16.1213 20.434 17.7516 22.936 20.2477 24.0093C20.8413 24.2633 21.3045 24.416 21.6665 24.5307C22.2626 24.7193 22.8052 24.692 23.2335 24.6287C23.711 24.5573 24.7058 24.03 24.9123 23.452C25.12 22.874 25.12 22.378 25.0581 22.2747C24.9974 22.1713 24.831 22.1093 24.5819 21.9847Z" fill="white"/>
</svg>
